<?xml version="1.0" encoding="UTF-8"?>
<svg id="Layer_2" xmlns="http://www.w3.org/2000/svg" viewBox="0 0 476.65 560.75">
  <defs>
    <style>
      .cls-1 {
        fill: #e2e2e2;
        opacity: .62;
        stroke: #fff;
        stroke-miterlimit: 10;
      }
    </style>
  </defs>
  <g id="Layer_1-2" data-name="Layer_1">
    <path class="cls-1" d="M412.14,62.56c17.24,7.16,68.92,67.78,53.68,130.46-15.32,62.99-56.69,76.44-51.79,78.59,6.05,2.66,53.49,37.05,58.83,82.28,4.16,35.25,9.88,55.47-21.68,110.13-31.56,54.66-103.26,70.22-103.26,70.22l-145.68-2.87c-.07,0-.13.06-.13.13v28.65c0,.06-.06.11-.12.09-29.2-7.87-61.51-27.9-61.51-27.9,0,0-50.14-24.63-88.11-80.64C14.4,395.69-7.91,333.99,3.48,241.42,14.87,148.86,80.73,88.27,80.73,88.27c24.98-33.77,83.73-59.57,83.73-59.57,0,0,46.39-26.9,120.24-28.16,73.85-1.26,126.83,29.54,126.83,29.54l.6,32.49ZM403.47,170.03c.04-1.88.13-3.75.28-5.62,1.09-13,.25-75.15-115.95-73.07l-86.56.04.49,150.81,139.41-.71s0,0,0,0c0,0,61.1-16.74,62.33-71.47ZM202.38,302.44v164.95l142.17-1.63s66.48-11.58,67.96-80.85c0,0-4.05-72.26-68.93-80.85l-141.2-1.63Z"/>
  </g>
</svg>