<?xml version="1.0" encoding="UTF-8"?>
<svg id="Layer_2" xmlns="http://www.w3.org/2000/svg" viewBox="0 0 475.65 555.24">
  <defs>
    <style>
      .cls-1 {
        fill: #e2e2e2;
        opacity: .62;
      }
    </style>
  </defs>
  <g id="Layer_1-2" data-name="Layer_1">
    <path class="cls-1" d="M411.51,55.48c.07,3.79,2,7.27,5.09,9.45,20.42,14.4,62.68,70.13,48.71,127.59-15.32,62.99-56.69,76.44-51.79,78.59,6.05,2.66,53.49,37.05,58.83,82.28,4.16,35.25,9.88,55.47-21.68,110.13-28.8,49.88-91.03,67.2-101.69,69.84-1.01.25-2.04.36-3.08.34l-132.15-2.6c-6.72-.13-12.23,5.32-12.15,12.05h0c.09,8.39-8.3,14.3-16.13,11.28-16.22-6.24-31.41-14.44-39.47-19.05-3.73-2.13-6.01-6.09-6-10.39l.44-121.11c.05-13.7-19.27-16.65-23.31-3.56-10.44,33.83-9.32,65.56-6.2,87.22,1.59,11.07-11.55,18.07-19.8,10.53-10.71-9.78-24.16-24.62-39.26-46.89C13.9,395.19-8.41,333.49,2.98,240.92,13.71,153.76,72.74,94.95,79.59,88.38c.45-.43.85-.89,1.23-1.39,23.98-31.65,77.22-56.13,82.69-58.59.3-.13.57-.27.86-.43C169.03,25.38,214.32,1.23,284.2.04c58.52-1,103.94,18.13,120.27,26.12,4.02,1.97,6.61,6.01,6.69,10.49l.35,18.84ZM402.96,169.89c.06-2.11.16-4.23.32-6.34,1.04-13.75-.83-74.77-115.98-72.7l-86.56.04s0,0,0,0l.49,150.81s0,0,0,0l139.41-.71s0,0,0,0c0,0,60.83-16.67,62.32-71.11ZM201.88,301.94v164.95l142.17-1.63s66.48-11.58,67.96-80.85c0,0-4.05-72.26-68.93-80.85l-141.2-1.63Z"/>
  </g>
</svg>